<?xml version="1.0" encoding="UTF-8" standalone="no"?>
<svg
   viewBox="0 0 900 900"
   version="1.1"
   id="svg1"
   sodipodi:docname="d.svg"
   width="900"
   height="900"
   inkscape:version="1.3.2 (091e20e, 2023-11-25)"
   xmlns:inkscape="http://www.inkscape.org/namespaces/inkscape"
   xmlns:sodipodi="http://sodipodi.sourceforge.net/DTD/sodipodi-0.dtd"
   xmlns:xlink="http://www.w3.org/1999/xlink"
   xmlns="http://www.w3.org/2000/svg"
   xmlns:svg="http://www.w3.org/2000/svg">
  <defs
     id="defs1">
    <radialGradient
       inkscape:collect="always"
       xlink:href="#linearGradient4"
       id="radialGradient5"
       cx="132.29167"
       cy="132.29167"
       fx="132.29167"
       fy="132.29167"
       r="132.29167"
       gradientUnits="userSpaceOnUse"
       gradientTransform="matrix(3.4015747,0,0,3.4015747,0,-2e-5)" />
    <linearGradient
       id="linearGradient4"
       inkscape:collect="always">
      <stop
         style="stop-color:#1e66f5;stop-opacity:1;"
         offset="0"
         id="stop4" />
      <stop
         style="stop-color:#00c0f3;stop-opacity:0;"
         offset="1"
         id="stop5" />
    </linearGradient>
  </defs>
  <sodipodi:namedview
     id="namedview1"
     pagecolor="#ffffff"
     bordercolor="#666666"
     borderopacity="1.0"
     inkscape:showpageshadow="2"
     inkscape:pageopacity="0.0"
     inkscape:pagecheckerboard="0"
     inkscape:deskcolor="#d1d1d1"
     inkscape:zoom="0.15744174"
     inkscape:cx="1028.952"
     inkscape:cy="-241.35911"
     inkscape:window-width="1408"
     inkscape:window-height="685"
     inkscape:window-x="2120"
     inkscape:window-y="343"
     inkscape:window-maximized="0"
     inkscape:current-layer="svg1" />
  <circle
     style="opacity:0.38;fill:url(#radialGradient5);fill-opacity:1;stroke-width:7.34184;stroke-linecap:round;stroke-dasharray:17.3273, 17.3273"
     id="path1-3"
     cx="450"
     cy="450"
     r="450"
     inkscape:export-filename="K.png"
     inkscape:export-xdpi="300"
     inkscape:export-ydpi="300" />
  <!--!Font Awesome Free 6.7.2 by @fontawesome - https://fontawesome.com License - https://fontawesome.com/license/free Copyright 2025 Fonticons, Inc.-->
  <path
     d="m 398.28748,221.6875 c -28.1,-28.1 -73.7,-28.1 -101.8,0 l -138.79996,138.8 c -28.1,28.1 -28.1,73.7 0,101.8 l 138.79996,138.8 c 28.1,28.1 73.7,28.1 101.8,0 l 138.8,-138.8 c 28.1,-28.1 28.1,-73.7 0,-101.8 z m -74.9,189.7 a 24,24 0 1 1 48,0 24,24 0 1 1 -48,0 z m -104,-24 a 24,24 0 1 1 0,48 24,24 0 1 1 0,-48 z m 128,176 a 24,24 0 1 1 0,-48 24,24 0 1 1 0,48 z m 128,-176 a 24,24 0 1 1 0,48 24,24 0 1 1 0,-48 z m -128,-80 a 24,24 0 1 1 0,-48 24,24 0 1 1 0,48 z m 96,328 c 0,35.3 28.7,64 64,64 h 192 c 35.3,0 64,-28.7 64,-64 v -192 c 0,-35.3 -28.7,-64 -64,-64 h -114.3 c 11.6,36 3.1,77 -25.4,105.5 l -116.3,116.3 z m 160,-120 a 24,24 0 1 1 0,48 24,24 0 1 1 0,-48 z"
     id="path1"
     style="fill:#d20f39;fill-opacity:1"
     inkscape:export-filename="d.png"
     inkscape:export-xdpi="96"
     inkscape:export-ydpi="96" />
</svg>
